<?xml version="1.0" encoding="utf-8"?><svg viewBox="0 0 447 48" xmlns="http://www.w3.org/2000/svg" xmlns:xlink="http://www.w3.org/1999/xlink"><style>:root>svg{display:none}:root>svg:target{display:block}</style><svg viewBox="0 0 21 20" id="advertising-svg" xmlns="http://www.w3.org/2000/svg"><g clip-path="url(#aa)"><path d="M10.5 20c5.523 0 10-4.477 10-10s-4.477-10-10-10S.5 4.477.5 10s4.477 10 10 10z"/><path d="M17.439 4.544l-3.71-1.367-5.333 7.687.53-3.489-2.905-1.693-5.347 6.432a10.12 10.12 0 001.41 3.51l3.19-3.853L4.1 16.296l3.637 1.331 5.404-7.78-1.184 4.449 2.946 1.722 5.655-5.7.002-.193c0-1.342-.258-2.624-.727-3.796l-3.285 3.325.89-5.11z"/></g><defs><clipPath id="aa"><rect x=".5" width="20" height="20" rx="10"/></clipPath></defs></svg><svg viewBox="0 0 447 12" id="advertising-vector" xmlns="http://www.w3.org/2000/svg"><path d="M1 1c8.244 0 8.244 10 16.488 10S25.732 1 33.976 1s8.244 10 16.468 10c8.245 0 8.245-10 16.47-10 8.243 0 8.243 10 16.468 10 8.244 0 8.244-10 16.487-10 8.244 0 8.244 10 16.489 10 8.243 0 8.243-10 16.487-10 8.244 0 8.244 10 16.489 10 8.243 0 8.243-10 16.487-10 8.244 0 8.244 10 16.488 10s8.244-10 16.488-10 8.244 10 16.469 10c8.244 0 8.244-10 16.468-10 8.244 0 8.244 10 16.469 10 8.244 0 8.244-10 16.487-10 8.245 0 8.245 10 16.489 10 8.243 0 8.243-10 16.487-10 8.245 0 8.245 10 16.489 10 8.243 0 8.243-10 16.487-10 8.244 0 8.244 10 16.488 10s8.244-10 16.488-10 8.244 10 16.469 10c8.244 0 8.244-10 16.469-10 8.244 0 8.244 10 16.468 10 8.244 0 8.244-10 16.488-10S437.756 11 446 11"/></svg><svg viewBox="0 0 15 15" id="esc" xmlns="http://www.w3.org/2000/svg"><circle cx="7.5" cy="7.5" r="7.5"/><path d="M12 7v1H3V7h9z"/><path d="M8 12H7V3h1v9z"/></svg><svg viewBox="0 0 20 20" id="ether-play" xmlns="http://www.w3.org/2000/svg"><path d="M10 0C4.475 0 0 4.475 0 10s4.475 10 10 10 10-4.475 10-10S15.525 0 10 0zM8 14.5v-9l6 4.5-6 4.5z"/></svg><svg viewBox="0 0 160 20" id="footer-logo" xmlns="http://www.w3.org/2000/svg"><path d="M29.24.331v11.41c0 2.688-.735 4.742-2.205 6.16C25.564 19.3 23.478 20 20.779 20c-1.341 0-2.542-.193-3.603-.58-1.043-.387-1.9-.93-2.57-1.63-.688.7-1.554 1.243-2.597 1.63-1.043.387-2.225.58-3.547.58-2.7 0-4.785-.7-6.256-2.1C.736 16.484 0 14.43 0 11.74V.331h4.524v11.271c0 1.566.326 2.726.978 3.48.652.737 1.62 1.106 2.904 1.106 2.626 0 3.938-1.529 3.938-4.586V.332h4.525v11.27c0 3.057 1.322 4.586 3.965 4.586 2.57 0 3.855-1.529 3.855-4.586V.332h4.552zm68.447 0v11.41c0 2.688-.736 4.742-2.207 6.16C94.01 19.3 91.924 20 89.225 20c-1.341 0-2.542-.193-3.603-.58-1.043-.387-1.9-.93-2.57-1.63-.689.7-1.554 1.243-2.597 1.63-1.043.387-2.225.58-3.547.58-2.7 0-4.785-.7-6.256-2.1-1.47-1.417-2.206-3.47-2.206-6.16V.331h4.524v11.271c0 1.566.326 2.726.978 3.48.651.737 1.62 1.106 2.904 1.106 2.626 0 3.938-1.529 3.938-4.586V.332h4.524v11.27c0 3.057 1.323 4.586 3.966 4.586 2.57 0 3.854-1.529 3.854-4.586V.332h4.553zM110.957 0c1.806 0 3.38.35 4.72 1.05 1.341.7 2.384 1.73 3.128 3.094.745 1.362 1.117 3.01 1.117 4.944v10.58h-4.524v-4.64h-8.937v4.64h-4.469V9.089c0-1.933.373-3.582 1.118-4.944.744-1.363 1.787-2.394 3.128-3.094 1.34-.7 2.913-1.05 4.719-1.05zm4.441 11.437V8.674c0-1.602-.4-2.808-1.201-3.619-.801-.828-1.89-1.243-3.267-1.243-1.397 0-2.495.415-3.296 1.243-.782.81-1.173 2.017-1.173 3.619v2.763h8.937zM142.638.331l-8.462 19.338h-4.468L121.273.33h4.888l5.948 13.813L138.142.33h4.496zM160 18.011c-.931.626-2.104 1.114-3.519 1.464-1.396.35-2.886.525-4.468.525-1.974 0-3.65-.24-5.028-.718-1.377-.497-2.42-1.179-3.128-2.044a4.692 4.692 0 01-1.061-3.011c0-1.032.289-1.943.866-2.735.577-.792 1.368-1.382 2.374-1.768a4.553 4.553 0 01-1.788-1.658c-.409-.7-.614-1.482-.614-2.348 0-1.05.326-2.007.978-2.873.651-.865 1.638-1.556 2.96-2.072C148.894.258 150.514 0 152.431 0c1.267 0 2.505.129 3.715.387 1.21.24 2.262.57 3.156.994l-1.257 3.426a12.823 12.823 0 00-5.446-1.188c-1.452 0-2.551.22-3.296.663-.726.423-1.089 1.003-1.089 1.74 0 .681.242 1.206.726 1.575.503.35 1.257.525 2.263.525h5.334v3.536h-5.614c-1.135 0-2.011.193-2.625.58-.614.386-.922.948-.922 1.685 0 .773.391 1.38 1.173 1.823.801.423 2.021.635 3.659.635 1.154 0 2.309-.147 3.463-.442 1.154-.313 2.132-.746 2.933-1.298L160 18.01zM56.823 11.203H33.548V7.83h23.275l-4.121-4.155 2.365-2.384 8.159 8.225-8.159 8.226-2.365-2.384 4.121-4.155z"/></svg><svg viewBox="0 0 24 24" id="header-search" xmlns="http://www.w3.org/2000/svg"><path d="M11 19a8 8 0 100-16 8 8 0 000 16zm10 2l-4.35-4.35"/></svg><svg viewBox="0 0 13 12" id="lives-like" xmlns="http://www.w3.org/2000/svg"><path d="M9.425 0C8.294 0 7.208.53 6.5 1.367A3.883 3.883 0 003.575 0C1.573 0 0 1.583 0 3.597c0 2.472 2.21 4.486 5.558 7.546L6.5 12l.942-.863C10.79 8.083 13 6.069 13 3.597 13 1.583 11.427 0 9.425 0zm-2.86 10.169l-.065.065-.065-.065C3.341 7.35 1.3 5.487 1.3 3.597c0-1.308.975-2.29 2.275-2.29 1.001 0 1.976.648 2.32 1.544h1.216c.338-.896 1.313-1.543 2.314-1.543 1.3 0 2.275.98 2.275 2.289 0 1.89-2.041 3.753-5.135 6.572z"/></svg><svg viewBox="0 0 10 13" id="lives-plays" xmlns="http://www.w3.org/2000/svg"><path fill-rule="evenodd" clip-rule="evenodd" d="M1.3 11.331L8.296 6.5 1.3 1.669v9.662zm-.634-10.1l.004.003-.004-.003zm.744 11.604L9.643 7.15a.77.77 0 000-1.3L1.41.165C.83-.24 0 .15 0 .815v11.37c0 .666.829 1.056 1.41.65z"/></svg><svg viewBox="0 0 12 13" id="lives-transfer" xmlns="http://www.w3.org/2000/svg"><path d="M10 9.189c-.507 0-.96.196-1.307.502L3.94 6.983c.033-.15.06-.3.06-.457 0-.157-.027-.307-.06-.457l4.7-2.682c.36.326.833.529 1.36.529 1.107 0 2-.875 2-1.958C12 .874 11.107 0 10 0S8 .874 8 1.958c0 .156.027.307.06.457l-4.7 2.682A2.015 2.015 0 002 4.568c-1.107 0-2 .875-2 1.958s.893 1.958 2 1.958c.527 0 1-.202 1.36-.529l4.747 2.715c-.034.137-.054.28-.054.424C8.053 12.145 8.927 13 10 13s1.947-.855 1.947-1.906c0-1.05-.874-1.905-1.947-1.905zm0-7.884c.367 0 .667.294.667.653 0 .359-.3.652-.667.652a.662.662 0 01-.667-.652c0-.36.3-.653.667-.653zM2 7.18a.662.662 0 01-.667-.653c0-.359.3-.653.667-.653.367 0 .667.294.667.653 0 .359-.3.653-.667.653zm8 4.581a.662.662 0 01-.667-.653c0-.358.3-.652.667-.652.367 0 .667.293.667.652 0 .36-.3.653-.667.653z"/></svg><svg viewBox="0 0 30 30" id="playlists-18+" xmlns="http://www.w3.org/2000/svg"><path d="M8.69 20h-.95v-6.105c0-.508.016-.989.047-1.442a6.132 6.132 0 01-.275.258c-.102.09-.567.47-1.395 1.143l-.515-.668 2.267-1.752h.82V20zm6.1-8.69c.78 0 1.4.182 1.857.545.457.364.685.866.685 1.506 0 .422-.13.807-.393 1.155-.261.347-.68.664-1.254.949.696.332 1.19.681 1.483 1.049.293.363.44.785.44 1.265 0 .711-.249 1.28-.745 1.705-.496.422-1.175.633-2.039.633-.914 0-1.617-.199-2.11-.598-.491-.402-.737-.97-.737-1.704 0-.981.597-1.745 1.793-2.292-.54-.304-.926-.632-1.16-.984a2.114 2.114 0 01-.352-1.19c0-.62.228-1.115.685-1.482.461-.37 1.077-.557 1.846-.557zm-1.852 6.528c0 .469.162.834.486 1.096.328.261.787.392 1.377.392.582 0 1.035-.137 1.36-.41.323-.273.485-.648.485-1.125 0-.379-.152-.715-.457-1.008-.304-.297-.835-.584-1.593-.861-.582.25-1.004.527-1.266.832-.262.3-.393.662-.393 1.084zm1.84-5.736c-.489 0-.872.117-1.15.351-.276.235-.415.547-.415.938 0 .359.115.668.346.925.23.258.656.516 1.277.774.559-.235.953-.486 1.184-.756.234-.27.351-.584.351-.943 0-.395-.142-.707-.428-.938-.28-.234-.67-.351-1.166-.351zm7.283 3.263h2.414v.809H22.06v2.496h-.814v-2.496h-2.402v-.809h2.402v-2.508h.815v2.508z"/><rect x=".5" y=".5" width="29" height="29" rx="14.5"/></svg><svg viewBox="0 0 48 48" id="podcasts-svg" xmlns="http://www.w3.org/2000/svg"><circle cx="24" cy="24" r="20"/><path d="M21.692 31.797l9.88-6.997a.96.96 0 000-1.6l-9.88-6.997c-.698-.5-1.692-.02-1.692.8v13.994c0 .82.994 1.3 1.692.8z"/></svg><svg viewBox="0 0 24 24" id="tabs-fb" xmlns="http://www.w3.org/2000/svg"><path d="M15.78 22v-7.74h2.592l.388-3.009h-2.98v-1.92c0-.871.242-1.465 1.491-1.465h1.593V5.174a21.323 21.323 0 00-2.322-.118c-2.296 0-3.869 1.402-3.869 3.977v2.218h-2.597v3.009h2.597V22H3.111A1.111 1.111 0 012 20.889V3.11A1.111 1.111 0 013.111 2H20.89A1.111 1.111 0 0122 3.111V20.89A1.111 1.111 0 0120.889 22H15.78z"/></svg><svg viewBox="0 0 24 24" id="tabs-inst" xmlns="http://www.w3.org/2000/svg"><path d="M12 2c2.717 0 3.056.01 4.122.06 1.065.05 1.79.217 2.428.465.66.254 1.216.598 1.772 1.153.509.5.902 1.105 1.153 1.772.247.637.415 1.363.465 2.428.047 1.066.06 1.405.06 4.122 0 2.717-.01 3.056-.06 4.122-.05 1.065-.218 1.79-.465 2.428a4.883 4.883 0 01-1.153 1.772c-.5.508-1.105.902-1.772 1.153-.637.247-1.363.415-2.428.465-1.066.047-1.405.06-4.122.06-2.717 0-3.056-.01-4.122-.06-1.065-.05-1.79-.218-2.428-.465a4.89 4.89 0 01-1.772-1.153 4.904 4.904 0 01-1.153-1.772c-.248-.637-.415-1.363-.465-2.428C2.013 15.056 2 14.717 2 12c0-2.717.01-3.056.06-4.122.05-1.066.217-1.79.465-2.428a4.88 4.88 0 011.153-1.772A4.897 4.897 0 015.45 2.525c.638-.248 1.362-.415 2.428-.465C8.944 2.013 9.283 2 12 2zm0 5a5 5 0 100 10 5 5 0 000-10zm6.5-.25a1.25 1.25 0 10-2.5 0 1.25 1.25 0 002.5 0zM12 9a3 3 0 110 6 3 3 0 010-6z"/></svg><svg viewBox="0 0 24 24" id="tabs-tw" xmlns="http://www.w3.org/2000/svg"><path d="M22.162 5.656a8.385 8.385 0 01-2.402.658A4.196 4.196 0 0021.6 4c-.82.488-1.719.83-2.656 1.015a4.182 4.182 0 00-7.126 3.814 11.874 11.874 0 01-8.62-4.37 4.168 4.168 0 00-.566 2.103c0 1.45.738 2.73 1.86 3.48a4.168 4.168 0 01-1.894-.522v.052a4.185 4.185 0 003.355 4.1 4.208 4.208 0 01-1.89.073A4.185 4.185 0 007.97 16.65a8.393 8.393 0 01-6.19 1.732 11.83 11.83 0 006.409 1.88c7.693 0 11.9-6.373 11.9-11.9 0-.18-.005-.362-.013-.54a8.497 8.497 0 002.087-2.165v-.001z"/></svg><svg viewBox="0 0 28 12" id="transmission" xmlns="http://www.w3.org/2000/svg"><path d="M24.354 6.354a.5.5 0 000-.708l-3.182-3.182a.5.5 0 10-.707.708L23.293 6l-2.828 2.828a.5.5 0 10.707.708l3.182-3.182zM4 6.5h20v-1H4v1z"/></svg><svg viewBox="0 0 18 18" id="transmission-link-svg" xmlns="http://www.w3.org/2000/svg"><path d="M9 1.5L1.5 5.25 9 9l7.5-3.75L9 1.5zM1.5 12.75L9 16.5l7.5-3.75M1.5 9L9 12.75 16.5 9"/></svg><svg viewBox="0 0 24 24" id="yotube" xmlns="http://www.w3.org/2000/svg"><path d="M21.543 6.498C22 8.28 22 12 22 12s0 3.72-.457 5.502c-.254.985-.997 1.76-1.938 2.022C17.896 20 12 20 12 20s-5.893 0-7.605-.476c-.945-.266-1.687-1.04-1.938-2.022C2 15.72 2 12 2 12s0-3.72.457-5.502c.254-.985.997-1.76 1.938-2.022C6.107 4 12 4 12 4s5.896 0 7.605.476c.945.266 1.687 1.04 1.938 2.022zM10 15.5l6-3.5-6-3.5v7z"/></svg></svg>